<svg width="29" height="22" viewBox="0 0 29 22" fill="none" xmlns="http://www.w3.org/2000/svg">
<path d="M23.9431 2.28171C27.0872 6.8766 28.6593 12.0341 28.0876 17.9887C28.0876 17.9887 28.0876 18.0356 28.04 18.0356C25.9439 19.5829 23.562 20.755 21.0371 21.5052C20.9895 21.5521 20.9895 21.5052 20.9418 21.5052C20.4178 20.755 19.9414 20.0049 19.5127 19.2078C19.5127 19.1609 19.5127 19.1609 19.5127 19.114L19.5603 19.0671C20.3225 18.7858 21.0371 18.4576 21.7517 18.0356C21.7517 18.0356 21.7993 18.0356 21.7993 17.9887C21.7993 17.9418 21.7993 17.9418 21.7517 17.895C21.6088 17.8012 21.4659 17.7074 21.3229 17.5667C21.2753 17.5667 21.2753 17.5667 21.2277 17.5667C16.702 19.6298 11.7475 19.6298 7.17421 17.5667C7.12657 17.5667 7.07894 17.5667 7.07894 17.5667C6.93602 17.7074 6.7931 17.8012 6.65019 17.895C6.60255 17.9418 6.60255 17.9418 6.60255 17.9887C6.60255 18.0356 6.60255 18.0356 6.65019 18.0356C7.31713 18.4576 8.07935 18.7858 8.84157 19.0671C8.84157 19.0671 8.84157 19.114 8.88921 19.114C8.88921 19.1609 8.88921 19.1609 8.88921 19.2078C8.46046 20.0049 7.98407 20.755 7.46005 21.5052C7.41241 21.5052 7.36477 21.5521 7.36477 21.5052C4.83991 20.755 2.45797 19.5829 0.361866 18.0356C0.314227 18.0356 0.314227 17.9887 0.314227 17.9887C-0.162161 12.8312 0.838254 7.62678 4.4588 2.28171C4.4588 2.28171 4.4588 2.28171 4.50644 2.28171C6.31672 1.43775 8.22227 0.875107 10.1755 0.546901C10.2231 0.500014 10.2707 0.546901 10.2707 0.546901C10.5566 1.01577 10.7948 1.53152 10.9853 2.00039C13.1291 1.67218 15.2728 1.67218 17.4166 2.00039C17.6071 1.53152 17.8453 1.01577 18.1311 0.546901C18.1311 0.546901 18.1788 0.500014 18.2264 0.546901C20.1796 0.875107 22.0852 1.43775 23.8954 2.28171C23.9431 2.28171 23.9431 2.28171 23.9431 2.28171ZM9.55615 14.8473C10.9377 14.8473 12.081 13.5814 12.081 12.081C12.081 10.5338 10.9853 9.3147 9.55615 9.3147C8.17463 9.3147 7.0313 10.5338 7.0313 12.081C7.0313 13.5814 8.17463 14.8473 9.55615 14.8473ZM18.8457 14.8473C20.2749 14.8473 21.3706 13.5814 21.3706 12.081C21.4182 10.5338 20.2749 9.3147 18.8457 9.3147C17.4642 9.3147 16.3685 10.5338 16.3685 12.081C16.3685 13.5814 17.4642 14.8473 18.8457 14.8473Z" fill="#F4F4F5"/>
</svg>
