<svg width="140" height="24" viewBox="0 0 140 24" fill="none" xmlns="http://www.w3.org/2000/svg">
<mask id="mask0_271_9" style="mask-type:luminance" maskUnits="userSpaceOnUse" x="0" y="0" width="140" height="24">
<path d="M140 0H0V24H140V0Z" fill="white"/>
</mask>
<g mask="url(#mask0_271_9)">
<path d="M47.7398 6.52019C47.415 6.19468 47.0234 5.93819 46.5934 5.76064C46.1634 5.58307 45.7049 5.48444 45.2272 5.48444H39.3517V11.186H37.2022C37.1257 10.5942 36.9824 10.022 36.7626 9.4795C36.4283 8.69035 35.9793 7.98998 35.4156 7.40797C34.8519 6.82599 34.1736 6.35249 33.4189 6.01711C31.8999 5.33647 30.0464 5.3266 28.4987 6.01711C27.7343 6.36236 27.056 6.82599 26.4924 7.40797C25.9287 7.98998 25.4702 8.69035 25.1454 9.4795C24.811 10.2686 24.6486 11.1269 24.6486 12.0146C24.6486 12.9024 24.8206 13.7705 25.1454 14.5596C25.4796 15.3488 25.9287 16.0393 26.4924 16.6311C27.056 17.223 27.7343 17.6866 28.4987 18.022C29.263 18.3574 30.0942 18.5251 30.954 18.5251C31.8138 18.5251 32.6545 18.3574 33.4189 18.022C34.1831 17.6866 34.8519 17.2131 35.4156 16.6311C35.9793 16.0393 36.4378 15.3488 36.7626 14.5596C37.0015 13.9974 37.1544 13.3957 37.2213 12.7742H39.3517V18.5351H40.6318V12.8827C40.6318 12.8827 40.6509 12.8136 40.6702 12.7841L40.737 12.7051C40.737 12.7051 40.7942 12.6657 40.8326 12.6657H45.3514C45.8195 12.6657 46.2782 12.567 46.6986 12.3796C47.1189 12.1922 47.4915 11.9357 47.8067 11.6201C48.122 11.3044 48.3703 10.9197 48.552 10.4857C48.7335 10.0516 48.829 9.57814 48.829 9.09479C48.829 8.61143 48.7335 8.11821 48.5327 7.68418C48.3418 7.25016 48.0742 6.86545 47.7494 6.53992L47.7398 6.52019ZM40.6509 11.186C40.6509 11.186 40.6318 11.1466 40.6318 11.1269V6.99369C40.6318 6.93449 40.6511 6.88516 40.6796 6.84572C40.6987 6.82599 40.737 6.79639 40.8039 6.79639H45.3514C45.6475 6.79639 45.9342 6.85559 46.2017 6.97396C46.4691 7.09233 46.6986 7.26002 46.8991 7.46717C47.0998 7.67431 47.2622 7.91107 47.3769 8.18727C47.4915 8.45361 47.5487 8.74953 47.5487 9.06519C47.5487 9.38086 47.4819 9.68664 47.3578 9.96284C47.2335 10.2489 47.0615 10.4857 46.861 10.6928C46.6508 10.8901 46.4023 11.0578 46.1253 11.1762C45.8482 11.2945 45.552 11.3537 45.2368 11.3537H40.8326C40.8326 11.3537 40.7657 11.334 40.737 11.3143L40.6509 11.1959V11.186ZM35.5875 14.027C35.3201 14.6583 34.9569 15.2107 34.4984 15.6842C34.0398 16.1577 33.5048 16.5325 32.8933 16.7988C31.6801 17.3315 30.1898 17.3315 28.9763 16.7988C28.3649 16.5325 27.8299 16.1577 27.3714 15.6842C26.9127 15.2107 26.5498 14.6583 26.2918 14.027C26.0339 13.3957 25.9002 12.715 25.9002 12.0048C25.9002 11.2945 26.0339 10.6139 26.2918 9.98258C26.5498 9.36113 26.9127 8.79886 27.3714 8.33522C27.8299 7.86174 28.3649 7.49677 28.9763 7.22056C29.5878 6.95422 30.2375 6.81612 30.9349 6.81612C31.6323 6.81612 32.2819 6.95422 32.8933 7.22056C33.5048 7.4869 34.0398 7.86174 34.4984 8.33522C34.9569 8.80872 35.3201 9.36113 35.5875 9.98258C35.855 10.604 35.9887 11.2847 35.9887 12.0048C35.9887 12.7249 35.855 13.4055 35.5875 14.027Z" fill="white"/>
<path d="M50.6735 18.5154H59.5584V17.1937H52.1543C52.0969 17.1937 52.0491 17.1739 52.011 17.1345C51.9728 17.095 51.9536 17.0457 51.9536 16.9865V12.8731C51.9536 12.8139 51.9728 12.7646 52.011 12.7251C52.0588 12.6857 52.0969 12.6659 52.1543 12.6659H59.5584V11.3441H52.1543C52.0969 11.3441 52.0491 11.3244 52.011 11.2849C51.9728 11.2455 51.9536 11.1961 51.9536 11.1271V7.02352C51.9536 6.96434 51.9728 6.91501 52.0206 6.86569C52.0588 6.81638 52.1065 6.79664 52.1639 6.79664H59.568V5.49455L50.6831 5.47482V18.5154H50.6735Z" fill="white"/>
<path d="M71.7386 15.8718C71.7386 15.9804 71.6621 16.01 71.6334 16.0198C71.6047 16.0198 71.5284 16.0494 71.4614 15.9705L62.8537 5.534L62.7963 5.47482H61.7167V18.5154H62.9968V8.37494C62.9968 8.22697 63.0923 8.1382 63.1784 8.1086C63.2644 8.079 63.3981 8.079 63.4842 8.19737L71.92 18.5254H72.99V5.48469H71.729V15.8817L71.7386 15.8718Z" fill="white"/>
<path d="M89.8624 6.25397C89.3846 5.97776 88.8402 5.79035 88.2573 5.68183C87.1205 5.46482 86.0887 5.46482 84.9517 5.68183C84.3786 5.79035 83.8436 5.9679 83.3564 6.22437C82.869 6.49071 82.4583 6.84584 82.143 7.28972C81.8182 7.74349 81.6558 8.32549 81.6558 9.01598C81.6558 9.70649 81.7895 10.249 82.057 10.6831C82.315 11.1171 82.6589 11.4722 83.0792 11.7386C83.4901 12.0049 83.9677 12.212 84.5028 12.3501C85.0091 12.4882 85.5537 12.6066 86.0983 12.7053C86.6333 12.8039 87.1586 12.9025 87.6745 12.9913C88.1714 13.09 88.6204 13.2182 89.0026 13.376C89.3752 13.5339 89.6809 13.7509 89.9102 14.0074C90.13 14.2638 90.235 14.5894 90.235 15.0234C90.235 15.4771 90.1107 15.8421 89.8815 16.1183C89.6331 16.4044 89.3178 16.6313 88.9548 16.799C88.5823 16.9667 88.1714 17.085 87.751 17.1442C87.321 17.2034 86.939 17.233 86.6142 17.233C86.2607 17.233 85.8498 17.2034 85.4104 17.1442C84.971 17.085 84.5601 16.9667 84.1779 16.799C83.8053 16.6411 83.4901 16.4044 83.2416 16.1183C83.0029 15.8323 82.8881 15.4771 82.8881 15.0332V14.8557H81.6558V15.0332C81.6558 15.7435 81.8182 16.3353 82.1335 16.799C82.4487 17.2527 82.8596 17.6078 83.3468 17.8643C83.834 18.1209 84.369 18.2983 84.9517 18.3872C85.525 18.4759 86.0791 18.5252 86.6142 18.5252C87.1492 18.5252 87.6938 18.4759 88.2573 18.3673C88.8306 18.2589 89.3656 18.0813 89.8528 17.8249C90.3401 17.5585 90.7509 17.2034 91.0662 16.7595C91.391 16.3058 91.5534 15.7237 91.5534 15.0332C91.5534 14.4019 91.4197 13.8692 91.1521 13.4648C90.8942 13.0604 90.5407 12.7348 90.1203 12.4882C89.7096 12.2515 89.2319 12.0641 88.7063 11.9358C88.1904 11.8076 87.6555 11.6991 87.1205 11.6004C86.5855 11.5018 86.06 11.4032 85.5441 11.3045C85.0473 11.2059 84.5984 11.0579 84.2162 10.8803C83.8436 10.7028 83.5379 10.4562 83.3086 10.1701C83.0888 9.89392 82.9742 9.50921 82.9742 9.03571C82.9742 8.56223 83.0888 8.21697 83.3277 7.94077C83.576 7.65472 83.8914 7.42782 84.2543 7.26012C84.6269 7.09244 85.0378 6.97407 85.4582 6.91488C85.8881 6.8557 86.2702 6.82611 86.595 6.82611C86.9485 6.82611 87.3497 6.86555 87.7892 6.94448C88.2288 7.02338 88.6395 7.15162 89.0217 7.33905C89.3943 7.51661 89.7096 7.76322 89.9579 8.07887C90.1968 8.3748 90.3211 8.73978 90.3211 9.19355V9.37111H91.5534V9.19355C91.5534 8.48331 91.391 7.88159 91.0757 7.40809C90.7605 6.94448 90.3592 6.56963 89.8624 6.28357V6.25397Z" fill="white"/>
<path d="M103.945 7.40801C103.381 6.82603 102.703 6.35253 101.948 6.01715C100.429 5.33651 98.5754 5.32664 97.0277 6.01715C96.2634 6.36239 95.5851 6.82603 95.0215 7.40801C94.4578 7.99002 93.9991 8.69039 93.6743 9.47954C93.3401 10.2687 93.1775 11.1269 93.1775 12.0147C93.1775 12.9025 93.3495 13.7705 93.6743 14.5597C94.0087 15.3488 94.4578 16.0393 95.0215 16.6312C95.5851 17.2231 96.2634 17.6867 97.0277 18.0221C97.7921 18.3575 98.6231 18.5252 99.4831 18.5252C100.343 18.5252 101.184 18.3575 101.948 18.0221C102.712 17.6867 103.381 17.2132 103.945 16.6312C104.508 16.0393 104.967 15.3488 105.292 14.5597C105.626 13.7705 105.789 12.9222 105.789 12.0147C105.789 11.1072 105.616 10.2687 105.292 9.47954C104.957 8.69039 104.508 7.99002 103.945 7.40801ZM99.4735 6.81616C100.161 6.81616 100.82 6.95426 101.432 7.2206C102.043 7.48694 102.578 7.86178 103.037 8.33526C103.495 8.80876 103.859 9.36117 104.126 9.98261C104.394 10.6041 104.527 11.2847 104.527 12.0048C104.527 12.7249 104.394 13.4056 104.126 14.027C103.859 14.6583 103.495 15.2206 103.037 15.6842C102.578 16.1577 102.043 16.5325 101.432 16.7989C100.219 17.3316 98.7283 17.3316 97.5149 16.7989C96.9036 16.5325 96.3684 16.1577 95.9099 15.6842C95.4513 15.2107 95.0883 14.6583 94.8304 14.027C94.5724 13.3957 94.4387 12.715 94.4387 12.0048C94.4387 11.2946 94.5724 10.6139 94.8304 9.98261C95.0883 9.36117 95.4513 8.79889 95.9099 8.33526C96.3684 7.86178 96.9036 7.4968 97.5149 7.2206C98.1263 6.95426 98.7855 6.81616 99.4735 6.81616Z" fill="white"/>
<path d="M116.794 13.228C116.794 13.7804 116.689 14.3032 116.488 14.7767C116.287 15.2601 116.01 15.6843 115.666 16.0394C115.322 16.3945 114.912 16.6805 114.443 16.8877C113.526 17.2921 112.389 17.302 111.444 16.8877C110.975 16.6805 110.565 16.3945 110.211 16.0394C109.867 15.6843 109.59 15.2601 109.389 14.7767C109.189 14.3032 109.084 13.7804 109.084 13.228V5.50424H107.804V13.228C107.804 13.958 107.937 14.6485 108.205 15.2897C108.472 15.9309 108.835 16.4931 109.304 16.9765C109.762 17.45 110.316 17.8347 110.937 18.1109C111.558 18.3872 112.227 18.5252 112.934 18.5252C113.641 18.5252 114.31 18.3872 114.931 18.1109C115.552 17.8347 116.106 17.4598 116.564 16.9765C117.023 16.4931 117.396 15.9309 117.663 15.2897C117.93 14.6485 118.064 13.958 118.064 13.228V5.50424H116.784V13.228H116.794Z" fill="white"/>
<path d="M121.981 17.0948C121.914 17.0159 121.876 16.9073 121.876 16.7594V5.48444H120.596V18.5251H128.946V17.2033H122.287C122.153 17.2033 122.048 17.1638 121.981 17.0948Z" fill="white"/>
<path d="M139.999 9.3319V9.15434C139.999 8.44411 139.837 7.84238 139.521 7.3689C139.206 6.90527 138.805 6.53042 138.308 6.24435C137.83 5.96815 137.286 5.78074 136.703 5.67222C135.566 5.45521 134.534 5.45521 133.398 5.67222C132.824 5.78074 132.289 5.95829 131.802 6.21476C131.315 6.4811 130.904 6.83622 130.589 7.28011C130.264 7.73387 130.102 8.31588 130.102 9.00637C130.102 9.69688 130.235 10.2394 130.503 10.6735C130.761 11.1075 131.105 11.4626 131.525 11.7289C131.936 11.9953 132.413 12.2024 132.949 12.3405C133.455 12.4786 134 12.597 134.544 12.6956C135.079 12.7943 135.604 12.8929 136.12 12.9817C136.617 13.0804 137.066 13.2086 137.448 13.3664C137.821 13.5243 138.127 13.7413 138.356 13.9977C138.576 14.2542 138.681 14.5797 138.681 15.0138C138.681 15.4675 138.557 15.8325 138.327 16.1087C138.079 16.3948 137.764 16.6217 137.401 16.7893C137.028 16.957 136.617 17.0754 136.197 17.1346C135.767 17.1938 135.385 17.2234 135.06 17.2234C134.707 17.2234 134.296 17.1938 133.856 17.1346C133.417 17.0754 133.006 16.957 132.624 16.7893C132.251 16.6315 131.936 16.3948 131.687 16.1087C131.449 15.8226 131.334 15.4675 131.334 15.0236V14.8461H130.102V15.0236C130.102 15.7339 130.264 16.3257 130.579 16.7893C130.894 17.2431 131.305 17.5982 131.793 17.8547C132.28 18.1112 132.815 18.2888 133.398 18.3775C133.971 18.4662 134.525 18.5156 135.06 18.5156C135.595 18.5156 136.139 18.4662 136.703 18.3578C137.276 18.2492 137.811 18.0718 138.299 17.8152C138.786 17.5489 139.197 17.1938 139.512 16.7499C139.837 16.2961 139.999 15.7141 139.999 15.0236C139.999 14.3923 139.866 13.8596 139.598 13.4552C139.34 13.0508 138.986 12.7252 138.566 12.4786C138.155 12.2419 137.678 12.0545 137.152 11.9262C136.636 11.798 136.101 11.6895 135.566 11.5908C135.031 11.4922 134.506 11.3935 133.99 11.2949C133.493 11.1963 133.044 11.0483 132.662 10.8707C132.289 10.6932 131.984 10.4466 131.754 10.1605C131.535 9.88431 131.42 9.4996 131.42 9.0261C131.42 8.55262 131.535 8.20736 131.774 7.93115C132.022 7.6451 132.337 7.41821 132.7 7.25053C133.073 7.08283 133.484 6.96446 133.904 6.90527C134.334 6.84609 134.716 6.81649 135.041 6.81649C135.394 6.81649 135.796 6.85596 136.235 6.93486C136.675 7.01377 137.085 7.14201 137.467 7.32944C137.84 7.507 138.155 7.75361 138.404 8.06925C138.643 8.36519 138.767 8.73016 138.767 9.18393V9.3615H139.999V9.3319Z" fill="white"/>
<path d="M18.3909 18.1702H9.91674V15.7435H18.3622L14.3783 8.9075C15.7732 7.50678 16.6521 5.55362 16.6521 3.38348H15.1999C15.1999 5.00123 14.5885 6.47101 13.6045 7.57582L9.19067 0L4.77685 7.57582C3.79283 6.47101 3.18138 5.00123 3.18138 3.38348H1.72922C1.72922 5.55362 2.59861 7.50678 4.003 8.9075L0.0286612 15.7435H8.47413V18.1702H0V19.6696H8.47413V24H9.9263V19.6696H18.4004V18.1702H18.3909ZM12.4962 8.56226C11.5504 9.20344 10.4135 9.58815 9.20022 9.58815C7.98689 9.58815 6.85001 9.2133 5.90419 8.56226L9.20022 2.90011L12.4962 8.56226ZM5.159 9.84462C6.32455 10.6239 7.70983 11.0875 9.20022 11.0875C10.6906 11.0875 12.0759 10.6338 13.2414 9.84462L15.8018 14.254H2.58905L5.14944 9.84462H5.159Z" fill="white"/>
</g>
</svg>
