<svg width="102" height="37" viewBox="0 0 102 37" fill="none" xmlns="http://www.w3.org/2000/svg">
<path d="M1.752 11H0.96V2.96H1.824L4.176 7.34L4.872 8.792L5.568 7.34L7.92 2.96H8.784V11H8.004V5.864L8.076 4.076L7.308 5.732L5.256 9.524H4.488L2.436 5.732L1.656 4.076L1.752 5.864V11ZM11.8352 11.12C10.8872 11.12 10.3472 10.604 10.3472 9.836C10.3472 9.08 10.9112 8.6 11.7152 8.24L13.8992 7.244V7.196C13.8992 6.332 13.4912 5.828 12.5552 5.828C11.6912 5.828 11.0672 6.32 10.7672 6.956L10.2152 6.404C10.5752 5.804 11.4152 5.12 12.6392 5.12C13.9832 5.12 14.6792 5.9 14.6792 7.184V9.884C14.6792 10.184 14.8112 10.292 15.0872 10.292H15.4232V11H14.8832C14.3072 11 13.9232 10.748 13.9232 10.016V9.404C13.7312 10.232 12.9872 11.12 11.8352 11.12ZM11.1392 9.728C11.1392 10.208 11.4992 10.46 12.0632 10.46C13.1312 10.46 13.9232 9.632 13.9232 8.852V7.832L12.0512 8.72C11.4272 9.008 11.1392 9.296 11.1392 9.728ZM18.736 11.132C17.236 11.132 16.336 9.944 16.336 8.12C16.336 6.308 17.236 5.12 18.736 5.12C19.876 5.12 20.488 5.912 20.668 6.824V2.96H21.448V11H20.668V9.428C20.488 10.34 19.876 11.132 18.736 11.132ZM17.14 8.12C17.14 9.74 17.932 10.472 18.976 10.472C20.14 10.472 20.668 9.62 20.668 8.66V7.58C20.668 6.62 20.14 5.78 18.976 5.78C17.932 5.78 17.14 6.512 17.14 8.12ZM25.5411 11.12C23.9331 11.12 22.8171 10.028 22.8171 8.12C22.8171 6.248 23.8851 5.12 25.4451 5.12C27.0171 5.12 28.0011 6.176 28.0011 7.916C28.0011 8.06 27.9771 8.204 27.9651 8.3H23.5731C23.6211 9.74 24.4011 10.46 25.5411 10.46C26.7051 10.46 27.2091 9.824 27.4611 9.26L27.9411 9.824C27.5331 10.532 26.7651 11.12 25.5411 11.12ZM25.4451 5.768C24.3891 5.768 23.6931 6.428 23.5851 7.724H27.2811C27.2091 6.428 26.5011 5.768 25.4451 5.768ZM34.003 11H32.983L31.411 5.24H32.287L33.235 9.128L33.499 10.412L33.847 9.128L35.071 5.24H36.043L37.267 9.128L37.615 10.412L37.879 9.128L38.815 5.24H39.703L38.131 11H37.111L35.887 7.16L35.563 5.9L35.227 7.16L34.003 11ZM41.5343 4.208H40.7423V2.96H41.5343V4.208ZM41.5343 11H40.7423V5.24H41.5343V11ZM45.099 11.132C44.223 11.132 43.539 10.58 43.539 9.536V5.852H42.603V5.24H43.539V4.412L44.319 3.824V5.24H46.251V5.852H44.319V9.32C44.319 10.148 44.751 10.376 45.255 10.376C45.771 10.376 46.191 10.004 46.383 9.596L46.659 10.364C46.407 10.784 45.843 11.132 45.099 11.132ZM48.5187 11H47.7267V2.96H48.5187V6.848C48.7227 5.912 49.4067 5.12 50.5827 5.12C51.6987 5.12 52.4427 5.792 52.4427 7.112V11H51.6507V7.292C51.6507 6.356 51.2427 5.78 50.2587 5.78C49.0227 5.78 48.5187 6.668 48.5187 7.664V11ZM58.599 11.132C57.723 11.132 57.039 10.58 57.039 9.536V5.852H56.103V5.24H57.039V4.412L57.819 3.824V5.24H59.751V5.852H57.819V9.32C57.819 10.148 58.251 10.376 58.755 10.376C59.271 10.376 59.691 10.004 59.883 9.596L60.159 10.364C59.907 10.784 59.343 11.132 58.599 11.132ZM62.0187 11H61.2267V2.96H62.0187V6.848C62.2227 5.912 62.9067 5.12 64.0827 5.12C65.1987 5.12 65.9427 5.792 65.9427 7.112V11H65.1507V7.292C65.1507 6.356 64.7427 5.78 63.7587 5.78C62.5227 5.78 62.0187 6.668 62.0187 7.664V11ZM69.9668 11.12C68.3588 11.12 67.2428 10.028 67.2428 8.12C67.2428 6.248 68.3108 5.12 69.8708 5.12C71.4428 5.12 72.4268 6.176 72.4268 7.916C72.4268 8.06 72.4028 8.204 72.3908 8.3H67.9988C68.0468 9.74 68.8268 10.46 69.9668 10.46C71.1308 10.46 71.6348 9.824 71.8868 9.26L72.3668 9.824C71.9588 10.532 71.1908 11.12 69.9668 11.12ZM69.8708 5.768C68.8148 5.768 68.1188 6.428 68.0108 7.724H71.7068C71.6348 6.428 70.9268 5.768 69.8708 5.768Z" fill="#A1A1AA"/>
<path d="M6.8 30.2C4.24 30.2 1.9 29.28 0.86 27.02L2.46 25.4C3.18 27.36 5.2 28.12 6.84 28.12C8.18 28.12 9.26 27.64 9.26 26.42C9.26 25.12 8.18 24.76 6.44 24.38L5.18 24.1C3.28 23.7 1.26 22.84 1.26 20.3C1.26 17.78 3.44 16.42 5.96 16.42C8.42 16.42 10.38 17.44 11.34 19.28L9.64 20.9C8.9 19.24 7.46 18.52 5.82 18.52C4.54 18.52 3.62 19.12 3.62 20.14C3.62 21.32 4.54 21.74 6 22.1L7.5 22.46C9.64 22.98 11.56 23.82 11.56 26.38C11.56 28.8 9.52 30.2 6.8 30.2ZM17.7019 30.2C14.9019 30.2 12.9819 28.16 12.9819 25.14C12.9819 22.1 14.9019 20.06 17.7019 20.06C20.5419 20.06 22.4619 22.1 22.4619 25.14C22.4619 28.16 20.5419 30.2 17.7019 30.2ZM17.7219 28.34C19.1819 28.34 20.1819 27.38 20.1819 25.14C20.1819 22.88 19.1819 21.92 17.7219 21.92C16.2819 21.92 15.2819 22.88 15.2819 25.14C15.2819 27.38 16.2819 28.34 17.7219 28.34ZM27.3631 30.2C25.4831 30.2 24.3231 29.06 24.3231 27.04V20.26H26.5631V26.36C26.5631 27.56 26.9631 28.38 28.4631 28.38C30.1031 28.38 30.6631 27.32 30.6631 25.72V20.26H32.9231V30H30.6631V27.34C30.3031 28.88 29.3031 30.2 27.3631 30.2ZM37.5216 30H35.2816V16.6H37.5216V30ZM53.6711 30H44.1911V16.6H53.6711V18.6H46.4511V22.16H52.4311V24.16H46.4511V28H53.6711V30ZM57.502 30H55.262V20.26H57.502V22.92C57.862 21.38 58.862 20.06 60.802 20.06C62.702 20.06 63.862 21.2 63.862 23.22V30H61.602V23.9C61.602 22.7 61.202 21.88 59.702 21.88C58.062 21.88 57.502 22.94 57.502 24.54V30ZM70.0438 27.08C69.2838 27.08 68.5838 26.94 68.0038 26.66C67.8238 26.96 67.6038 27.34 67.6038 27.68C67.6038 28.18 67.8638 28.44 68.7638 28.44H71.9038C73.8438 28.44 74.9038 29.22 74.9038 30.68C74.9038 32.52 73.1038 33.92 69.5638 33.92C66.8438 33.92 65.2638 33.06 65.2638 31.84C65.2638 30.92 66.1438 30.42 67.0838 30.2C66.3838 30 65.9238 29.54 65.9238 28.8C65.9238 27.92 66.6838 27.06 67.5838 26.44C66.6038 25.84 66.0038 24.82 66.0038 23.58C66.0038 21.52 67.6438 20.06 70.0438 20.06C70.6638 20.06 71.2238 20.16 71.7238 20.34L72.2038 18L74.3638 18.74L72.5438 20.74C73.5038 21.36 74.0638 22.36 74.0638 23.58C74.0638 25.64 72.4438 27.08 70.0438 27.08ZM70.0438 25.48C71.1038 25.48 71.9438 24.8 71.9438 23.58C71.9438 22.36 71.1038 21.68 70.0438 21.68C68.9838 21.68 68.1438 22.36 68.1438 23.58C68.1438 24.8 68.9838 25.48 70.0438 25.48ZM69.6638 32.24C71.7638 32.24 72.8838 31.78 72.8838 30.96C72.8838 30.44 72.4638 30.22 71.6038 30.22H67.5438C67.3238 30.44 67.0838 30.76 67.0838 31.1C67.0838 31.82 67.8838 32.24 69.6638 32.24ZM78.5763 18.88H76.3363V16.6H78.5763V18.88ZM78.5763 30H76.3363V20.26H78.5763V30ZM83.1856 30H80.9456V20.26H83.1856V22.92C83.5456 21.38 84.5456 20.06 86.4856 20.06C88.3856 20.06 89.5456 21.2 89.5456 23.22V30H87.2856V23.9C87.2856 22.7 86.8856 21.88 85.3856 21.88C83.7456 21.88 83.1856 22.94 83.1856 24.54V30ZM96.125 30.2C93.225 30.2 91.325 28.18 91.325 25.14C91.325 22.08 93.225 20.06 95.965 20.06C98.885 20.06 100.505 22 100.505 24.7C100.505 25.06 100.465 25.48 100.425 25.68H93.465C93.585 27.42 94.605 28.36 96.145 28.36C97.845 28.36 98.605 27.48 98.965 26.66L100.345 28.1C99.605 29.22 98.285 30.2 96.125 30.2ZM95.965 21.86C94.585 21.86 93.665 22.66 93.485 24.24H98.485C98.325 22.7 97.445 21.86 95.965 21.86Z" fill="#A1A1AA"/>
</svg>
